M48
; DRILL file KiCad 10.0.6 date 2026-10-05T20:52:12
; FORMAT={-:-/ absolute / metric / decimal}
; #@! TF.CreationDate,2026-10-05T20:52:12+05:30
; #@! TF.GenerationSoftware,Kicad,Pcbnew,10.0.6
; #@! TF.FileFunction,Plated,1,2,PTH
FMAT,2
METRIC
; #@! TA.AperFunction,Plated,PTH,ComponentDrill
T1C0.600
; #@! TA.AperFunction,Plated,PTH,ComponentDrill
T2C0.800
; #@! TA.AperFunction,Plated,PTH,ComponentDrill
T3C1.000
%
G90
G05
T1
X116.035Y-83.505
X116.035Y-86.045
X116.035Y-90.055
X116.035Y-92.595
X116.035Y-96.605
X116.035Y-99.145
X118.575Y-83.505
X118.575Y-86.045
X118.575Y-90.055
X118.575Y-92.595
X118.575Y-96.605
X118.575Y-99.145
X121.115Y-83.505
X121.115Y-86.045
X121.115Y-90.055
X121.115Y-92.595
X121.115Y-96.605
X121.115Y-99.145
X125.085Y-83.505
X125.085Y-86.045
X125.085Y-90.055
X125.085Y-92.595
X125.085Y-96.605
X125.085Y-99.145
X127.625Y-83.505
X127.625Y-86.045
X127.625Y-90.055
X127.625Y-92.595
X127.625Y-96.605
X127.625Y-99.145
X130.165Y-83.505
X130.165Y-86.045
X130.165Y-90.055
X130.165Y-92.595
X130.165Y-96.605
X130.165Y-99.145
X134.135Y-83.505
X134.135Y-86.045
X134.135Y-90.055
X134.135Y-92.595
X134.135Y-96.605
X134.135Y-99.145
X136.675Y-83.505
X136.675Y-86.045
X136.675Y-90.055
X136.675Y-92.595
X136.675Y-96.605
X136.675Y-99.145
X139.215Y-83.505
X139.215Y-86.045
X139.215Y-90.055
X139.215Y-92.595
X139.215Y-96.605
X139.215Y-99.145
T2
X116.175Y-123.305
X118.715Y-123.305
X121.255Y-123.305
X123.795Y-123.305
X139.745Y-102.925
X139.745Y-106.475
X139.745Y-110.025
X139.745Y-113.575
X139.745Y-117.125
X139.745Y-120.675
X139.745Y-124.225
X139.745Y-127.775
X139.745Y-131.325
X147.365Y-102.925
X147.365Y-106.475
X147.365Y-110.025
X147.365Y-113.575
X147.365Y-117.125
X147.365Y-120.675
X147.365Y-124.225
X147.365Y-127.775
X147.365Y-131.325
T3
X103.465Y-83.775
X106.005Y-83.775
X108.545Y-83.775
X111.085Y-83.775
M30
